<?xml version="1.0" encoding="UTF-8"?>
<!DOCTYPE svg PUBLIC "-//W3C//DTD SVG 1.1//EN" "http://www.w3.org/Graphics/SVG/1.1/DTD/svg11.dtd">
<svg version="1.1" xmlns="http://www.w3.org/2000/svg" xmlns:xlink="http://www.w3.org/1999/xlink" x="0" y="0" width="332.322" height="338.792" viewBox="0, 0, 332.322, 338.792">
  <g id="Layer_1" transform="translate(-130.768, -166.794)">
    <path d="M385.113,288.899 L389.771,288.914 L389.748,304.339 L385.239,304.328 L385.113,288.899" fill="#621FA0"/>
    <path d="M355.662,238.058 L357.719,238.077 L357.72,238.054 L363.51,238.052 L367.106,238.05 L367.108,243.318 L372.095,243.316 L372.092,238.247 L374.81,238.245 L381.6,238.241 L381.605,243.31 L385.64,243.308 L385.639,238.094 L392.947,238.091 L398.872,238.089 L402.44,238.089 L402.518,269.071 L402.515,270.987 L410.063,270.995 L410.063,268.84 L409.059,268.84 L409.054,257.348 L419.246,257.343 L419.237,268.833 L418.294,268.832 L418.292,271.003 L427.458,271.013 L427.457,269.97 L427.457,268.892 L424.208,268.887 L424.252,238.076 L429.77,238.079 L437.844,238.079 L437.844,238.082 L437.805,268.906 L435.604,268.904 L435.604,271.022 L446.198,271.033 L446.209,269.016 L446.246,238.073 L448.592,238.075 L454.372,238.093 L454.374,238.058 L463.027,238.058 L463.025,268.996 L463.022,271.356 L456.482,271.388 L455.113,271.388 L455.131,284.395 L455.131,286.525 L463.09,286.533 L463.031,304.271 L405.782,304.396 L401.381,304.367 L401.448,293.908 L405.768,293.937 L405.76,286.584 L369.685,286.574 L369.686,288.626 L377.375,288.608 L377.379,304.279 L355.662,304.288 L355.662,238.058" fill="#621FA0"/>
    <path d="M358.085,312.419 L358.02,304.284 L360.57,304.279 L360.635,312.416 L363.689,312.413 L363.693,316.758 L402.377,316.793 L402.363,358.774 L363.73,358.794 L363.732,360.599 L361.039,360.605 L351.709,360.577 L351.653,332.44 L351.648,324.83 L351.645,324.83 L351.614,312.426 L358.085,312.419" fill="#621FA0"/>
    <path d="M259.417,166.794 L271.11,166.794 L271.11,197.797 L289.827,197.797 L289.776,183.229 L280.125,183.234 L280.08,167.648 L336.41,167.423 L336.41,233.624 L333.419,233.618 L333.413,238.284 L336.657,238.275 L336.691,271.085 L355.662,271.051 L355.662,273.502 L336.661,273.644 L336.661,304.382 L299.898,304.342 L299.898,286.659 L270.838,286.659 L270.482,286.661 L270.49,288.73 L277.603,288.671 L277.627,298.707 L277.627,304.399 L254.5,304.408 L254.425,286.184 L259.823,286.184 L259.825,285.424 L259.854,271.215 L259.853,269.006 L254.369,268.989 L254.443,238.132 L261.977,238.136 L261.99,233.61 L254.405,233.588 L254.468,202.902 L260.072,202.889 L260.086,197.797 L254.492,197.794 L254.51,166.794 L259.417,166.794 M301.517,202.863 L301.385,233.665 L298.713,233.666 L298.676,238.065 L301.462,238.029 L301.357,271.105 L325.104,271.105 L325.118,238.272 L327.882,238.3 L327.858,233.608 L325.096,233.602 L325.174,202.844 L325.174,200.886 L315.866,200.92 L315.866,205.903 L317.012,205.912 L317.012,213.524 L309.359,213.512 L309.359,205.898 L310.559,205.898 L310.546,200.947 L301.517,200.971 L301.517,202.863 M271.11,271.166 L289.827,271.166 L289.827,238.136 L293.113,238.136 L293.113,233.665 L289.827,233.665 L289.827,200.997 L271.11,200.997 L271.11,233.61 L267.892,233.61 L267.892,238.136 L271.11,238.136 L271.11,271.166" fill="#621FA0"/>
    <path d="M358.057,360.601 L360.739,360.605 L360.717,399.503 L367.864,399.507 L366.211,397.954 L364.825,396.159 L363.74,394.169 L362.985,392.031 L373.732,388.813 L373.733,385.085 L402.406,385.099 L402.418,409.275 L402.416,409.275 L402.419,417.325 L376.603,417.319 L376.6,428.874 L402.405,428.88 L402.402,439.363 L376.553,439.368 L376.54,447.321 L376.603,447.321 L376.598,450.942 L402.403,450.919 L402.397,461.475 L376.617,461.434 L376.604,469.314 L376.603,469.314 L376.598,472.956 L402.398,472.971 L402.405,483.458 L387.268,483.469 L387.268,495.317 L402.404,495.321 L402.401,505.299 L358.193,505.289 L358.196,495.307 L373.229,495.312 L373.255,488.873 L358.207,488.815 L358.176,472.944 L373.881,472.954 L373.889,461.43 L358.198,461.403 L358.214,450.912 L373.87,450.938 L373.868,439.369 L358.197,439.373 L358.214,428.87 L373.912,428.873 L373.915,416.981 L369.613,416.979 L370.31,418.362 L370.757,419.845 L370.943,421.383 L370.781,422.672 L370.416,423.918 L369.78,424.796 L368.872,425.386 L367.812,425.613 L367.073,425.376 L366.389,425.008 L366.103,424.834 L365.769,424.802 L364.906,424.89 L363.709,425.471 L363.129,425.583 L362.383,425.342 L361.796,424.822 L361.334,423.781 L360.99,423.351 L360.485,423.13 L359.631,423.137 L358.821,422.868 L358.139,422.356 L357.498,421.452 C356.352,419.364 357.411,415.81 358.964,414.182 L360.174,413.259 L361.587,412.692 L363.099,412.522 L363.1,410.64 L363.103,410.64 L363.105,409.798 L363.107,409.379 L363.123,405.023 L358.022,405.004 L358.033,399.898 L358.034,399.898 L358.057,360.601" fill="#621FA0"/>
    <path d="M254.964,389.13 L254.927,397.614 L259.931,397.636 L259.929,404.602 L295.129,404.577 L295.141,397.283 L290.256,397.276 L290.237,385.481 L295.158,385.492 L295.182,370.186 L326.02,370.291 L325.988,385.558 L334.793,385.576 L334.814,404.934 L320.978,404.962 L320.978,408.363 L320.935,409.373 L363.294,409.374 L363.282,411.725 L315.875,411.713 L315.136,411.713 L315.136,416.889 L317.073,416.883 L317.071,471.076 L309.227,471.072 L315.156,471.076 L315.16,479.608 L326.167,479.593 L326.177,505.532 L239.328,505.586 L239.334,477.831 L264.721,477.799 L264.748,472.542 L264.75,471.117 L261.354,471.109 L253.495,471.123 L253.478,416.914 L253.463,411.998 L253.467,407.606 L249.89,407.606 L249.89,412.625 L229.082,412.627 L229.053,389.118 L254.964,389.13 M268.846,421.022 L268.853,451.94 L268.831,456.856 L301.68,456.87 L301.643,451.893 L301.678,426.007 L301.695,421.037 L268.846,421.022" fill="#621FA0"/>
    <path d="M139.653,222.73 L142.979,222.73 L142.979,248.386 L156.967,248.386 L156.968,230.737 L163.575,230.72 L166.921,230.72 L166.921,256.3 L180.907,256.305 L180.909,238.721 L187.522,238.749 L190.841,238.763 L190.837,264.341 L204.857,264.341 L204.859,246.75 L211.452,246.763 L214.806,246.762 L214.803,269.784 L228.775,269.776 L228.75,254.973 L238.735,255.017 L238.737,283.952 L259.828,283.943 L259.823,286.184 L238.745,286.184 L238.745,303.568 L233.905,303.569 L224.879,303.558 L224.888,295.975 L219.491,295.972 L219.493,292.609 L217.27,292.611 L216.42,296.897 L215.144,301.075 L214.96,301.65 L197.099,295.691 L198.069,292.998 L130.768,270.429 L133.257,263.006 L135.296,256.887 L132.053,255.759 L133.047,252.738 L133.049,223.05 L133.043,222.721 L139.653,222.73" fill="#621FA0"/>
    <path d="M413.846,370.276 L419.979,370.275 L419.979,367.153 L438.396,367.151 L438.397,370.273 L442.666,370.272 L442.666,391.474 L462.186,391.471 L462.188,412.747 L402.419,412.759 L402.418,408.173 L413.853,408.171 L413.846,371.605 L413.846,370.276" fill="#621FA0"/>
    <path d="M254.5,304.408 L257.747,304.408 L254.5,304.417 L254.5,304.408" fill="#AFAFAF"/>
    <path d="M442.741,170.067 L451.955,170.31 L451.365,168.531 L456.613,166.794 L462.188,183.634 L450.42,187.545 L449.752,185.539 L448.692,182.347 L455.284,180.156 L453.129,173.607 L442.654,173.33 L442.741,170.067" fill="#621FA0"/>
    <path d="M361.35,408.862 L361.926,408.863 L361.926,408.864 L361.35,408.862" fill="#AFAFAF"/>
    <path d="M178.201,253.931 L178.548,254.361 L178.201,253.931" fill="#AFAFAF"/>
    <path d="M164.756,428.85 L164.758,429.469 L164.756,429.469 L164.756,428.85" fill="#A4A4A4"/>
    <path d="M326.577,310.543 L325.934,312.289 L253.315,312.339 L248.714,318.226 L240.948,318.226 L237.683,325.102 L242.085,326.672 L242.135,328.168 L322.768,355.079 L336.717,313.18 L358.023,313.13 L358.023,310.543 L326.577,310.543" fill="#621FA0"/>
    <path d="M297.285,287.417 L297.285,312.307 L300.032,312.307 L300.032,287.417 z" fill="#621FA0"/>
    <path d="M320.763,328.581 C320.763,332.299 317.749,335.312 314.032,335.312 C310.315,335.312 307.302,332.299 307.302,328.581 C307.302,324.864 310.315,321.851 314.032,321.851 C317.749,321.851 320.763,324.864 320.763,328.581" fill="#FFFFFF"/>
    <path d="M317.817,332.127 L316.234,332.127 L315.604,330.489 L312.722,330.489 L312.127,332.127 L310.583,332.127 L313.391,324.917 L314.93,324.917 z M315.137,329.275 L314.144,326.599 L313.17,329.275 z" fill="#000000"/>
    <path d="M323.879,287.593 C323.879,291.311 320.866,294.324 317.149,294.324 C313.432,294.324 310.418,291.311 310.418,287.593 C310.418,283.876 313.432,280.862 317.149,280.862 C320.866,280.862 323.879,283.876 323.879,287.593" fill="#FFFFFF"/>
    <path d="M314.155,288.794 L315.571,288.656 Q315.699,289.37 316.09,289.704 Q316.481,290.038 317.145,290.038 Q317.848,290.038 318.205,289.741 Q318.561,289.443 318.561,289.045 Q318.561,288.789 318.411,288.61 Q318.261,288.43 317.888,288.297 Q317.632,288.209 316.722,287.983 Q315.552,287.693 315.079,287.27 Q314.416,286.675 314.416,285.819 Q314.416,285.268 314.728,284.789 Q315.04,284.309 315.628,284.058 Q316.216,283.807 317.047,283.807 Q318.404,283.807 319.09,284.402 Q319.776,284.998 319.811,285.991 L318.355,286.055 Q318.261,285.499 317.954,285.256 Q317.647,285.012 317.032,285.012 Q316.397,285.012 316.038,285.273 Q315.807,285.44 315.807,285.72 Q315.807,285.976 316.024,286.158 Q316.299,286.389 317.361,286.64 Q318.424,286.891 318.933,287.159 Q319.442,287.427 319.729,287.892 Q320.017,288.356 320.017,289.04 Q320.017,289.66 319.673,290.201 Q319.329,290.742 318.699,291.005 Q318.07,291.268 317.13,291.268 Q315.763,291.268 315.03,290.636 Q314.298,290.004 314.155,288.794 z" fill="#272724"/>
    <path d="M201.122,276.126 C201.122,279.843 198.108,282.857 194.391,282.857 C190.674,282.857 187.66,279.843 187.66,276.126 C187.66,272.408 190.674,269.395 194.391,269.395 C198.108,269.395 201.122,272.408 201.122,276.126" fill="#FFFFFF"/>
    <path d="M193.672,279.672 L193.672,273.682 L191.532,273.682 L191.532,272.462 L197.262,272.462 L197.262,273.682 L195.127,273.682 L195.127,279.672 z" fill="#272724"/>
    <path d="M387.252,263.309 C387.252,267.026 384.239,270.04 380.521,270.04 C376.804,270.04 373.79,267.026 373.79,263.309 C373.79,259.592 376.804,256.578 380.521,256.578 C384.239,256.578 387.252,259.592 387.252,263.309" fill="#FFFFFF"/>
    <path d="M377.28,266.914 L377.28,259.704 L380.344,259.704 Q381.5,259.704 382.023,259.898 Q382.547,260.093 382.862,260.589 Q383.177,261.086 383.177,261.725 Q383.177,262.537 382.7,263.066 Q382.223,263.594 381.273,263.732 Q381.746,264.007 382.053,264.337 Q382.36,264.666 382.882,265.507 L383.762,266.914 L382.021,266.914 L380.969,265.345 Q380.408,264.504 380.201,264.285 Q379.995,264.066 379.764,263.985 Q379.533,263.904 379.031,263.904 L378.736,263.904 L378.736,266.914 z M378.736,262.753 L379.813,262.753 Q380.86,262.753 381.121,262.665 Q381.382,262.576 381.529,262.36 Q381.677,262.143 381.677,261.819 Q381.677,261.455 381.482,261.231 Q381.288,261.007 380.934,260.948 Q380.757,260.924 379.872,260.924 L378.736,260.924 z" fill="#272724"/>
    <path d="M382.777,337.793 C382.777,341.511 379.764,344.525 376.047,344.525 C372.33,344.525 369.316,341.511 369.316,337.793 C369.316,334.076 372.33,331.063 376.047,331.063 C379.764,331.063 382.777,334.076 382.777,337.793" fill="#FFFFFF"/>
    <path d="M373.512,341.34 L373.512,334.13 L375.848,334.13 Q377.176,334.13 377.579,334.239 Q378.199,334.401 378.617,334.944 Q379.035,335.488 379.035,336.348 Q379.035,337.012 378.794,337.465 Q378.553,337.917 378.181,338.175 Q377.81,338.434 377.426,338.517 Q376.905,338.62 375.917,338.62 L374.967,338.62 L374.967,341.34 z M374.967,335.35 L374.967,337.396 L375.764,337.396 Q376.625,337.396 376.915,337.283 Q377.205,337.17 377.37,336.929 Q377.535,336.688 377.535,336.368 Q377.535,335.975 377.303,335.719 Q377.072,335.463 376.718,335.399 Q376.458,335.35 375.671,335.35 z" fill="#000000"/>
    <path d="M390.369,401.169 C390.369,404.887 387.355,407.9 383.638,407.9 C379.921,407.9 376.907,404.887 376.907,401.169 C376.907,397.452 379.921,394.439 383.638,394.439 C387.355,394.439 390.369,397.452 390.369,401.169" fill="#FFFFFF"/>
    <path d="M381.306,404.715 L381.306,397.505 L386.248,397.505 L386.248,398.725 L382.761,398.725 L382.761,400.431 L385.771,400.431 L385.771,401.651 L382.761,401.651 L382.761,404.715 z" fill="#000000"/>
    <path d="M293.434,482.014 C293.434,485.731 290.42,488.744 286.703,488.744 C282.986,488.744 279.972,485.731 279.972,482.014 C279.972,478.296 282.986,475.282 286.703,475.282 C290.42,475.282 293.434,478.296 293.434,482.014" fill="#FFFFFF"/>
    <path d="M283.819,485.56 L283.819,478.35 L285.275,478.35 L285.275,481.552 L288.216,478.35 L290.173,478.35 L287.459,481.158 L290.321,485.56 L288.437,485.56 L286.455,482.176 L285.275,483.381 L285.275,485.56 z" fill="#000000"/>
    <path d="M153.166,440.317 L153.166,446.958 L169.766,446.958 L169.766,440.317 z" fill="#621F9F"/>
    <path d="M183.047,446.959 L199.647,446.959 L199.647,440.317 L176.405,440.317 L176.405,470.2 L183.047,470.2 L183.047,446.959" fill="#621F9F"/>
    <path d="M169.764,401.216 L169.764,394.439 C152.765,397.562 139.885,412.456 139.885,430.356 L139.885,446.958 L146.524,446.958 L146.524,430.356 C146.524,416.134 156.457,404.237 169.764,401.216" fill="#621F9F"/>
    <path d="M206.288,440.317 L206.288,460.236 C206.288,476.74 192.909,490.119 176.405,490.119 L176.405,496.758 C196.576,496.758 212.928,480.407 212.928,460.236 L212.928,440.317 L206.288,440.317" fill="#621F9F"/>
  </g>
</svg>
